<svg xmlns="http://www.w3.org/2000/svg" version="1.1" xmlns:xlink="http://www.w3.org/1999/xlink" xmlns:svgjs="http://svgjs.dev/svgjs" width="1440" height="560" preserveAspectRatio="none" viewBox="0 0 1440 560"><g mask="url(&quot;#SvgjsMask1000&quot;)" fill="none"><rect width="1440" height="560" x="0" y="0" fill="#0e2a47"></rect><path d="M1435 113L1434 261" stroke-width="6" stroke="url(&quot;#SvgjsLinearGradient1001&quot;)" stroke-linecap="round" class="Down"></path><path d="M438 177L437 -199" stroke-width="8" stroke="url(&quot;#SvgjsLinearGradient1001&quot;)" stroke-linecap="round" class="Down"></path><path d="M414 429L413 618" stroke-width="6" stroke="url(&quot;#SvgjsLinearGradient1002&quot;)" stroke-linecap="round" class="Up"></path><path d="M171 473L170 218" stroke-width="6" stroke="url(&quot;#SvgjsLinearGradient1001&quot;)" stroke-linecap="round" class="Down"></path><path d="M887 304L886 118" stroke-width="8" stroke="url(&quot;#SvgjsLinearGradient1001&quot;)" stroke-linecap="round" class="Down"></path><path d="M1194 94L1193 484" stroke-width="10" stroke="url(&quot;#SvgjsLinearGradient1001&quot;)" stroke-linecap="round" class="Down"></path><path d="M77 478L76 779" stroke-width="10" stroke="url(&quot;#SvgjsLinearGradient1001&quot;)" stroke-linecap="round" class="Down"></path><path d="M533 521L532 738" stroke-width="6" stroke="url(&quot;#SvgjsLinearGradient1002&quot;)" stroke-linecap="round" class="Up"></path><path d="M1194 445L1193 675" stroke-width="10" stroke="url(&quot;#SvgjsLinearGradient1002&quot;)" stroke-linecap="round" class="Up"></path><path d="M293 528L292 942" stroke-width="10" stroke="url(&quot;#SvgjsLinearGradient1002&quot;)" stroke-linecap="round" class="Up"></path><path d="M748 316L747 702" stroke-width="8" stroke="url(&quot;#SvgjsLinearGradient1001&quot;)" stroke-linecap="round" class="Down"></path><path d="M1412 391L1411 116" stroke-width="6" stroke="url(&quot;#SvgjsLinearGradient1001&quot;)" stroke-linecap="round" class="Down"></path><path d="M1282 437L1281 665" stroke-width="10" stroke="url(&quot;#SvgjsLinearGradient1001&quot;)" stroke-linecap="round" class="Down"></path><path d="M338 441L337 272" stroke-width="6" stroke="url(&quot;#SvgjsLinearGradient1002&quot;)" stroke-linecap="round" class="Up"></path><path d="M287 455L286 754" stroke-width="6" stroke="url(&quot;#SvgjsLinearGradient1002&quot;)" stroke-linecap="round" class="Up"></path><path d="M1338 207L1337 -49" stroke-width="8" stroke="url(&quot;#SvgjsLinearGradient1001&quot;)" stroke-linecap="round" class="Down"></path><path d="M1042 309L1041 616" stroke-width="8" stroke="url(&quot;#SvgjsLinearGradient1001&quot;)" stroke-linecap="round" class="Down"></path><path d="M321 10L320 392" stroke-width="10" stroke="url(&quot;#SvgjsLinearGradient1001&quot;)" stroke-linecap="round" class="Down"></path><path d="M1045 248L1044 651" stroke-width="6" stroke="url(&quot;#SvgjsLinearGradient1001&quot;)" stroke-linecap="round" class="Down"></path><path d="M335 254L334 655" stroke-width="10" stroke="url(&quot;#SvgjsLinearGradient1001&quot;)" stroke-linecap="round" class="Down"></path><path d="M219 401L218 772" stroke-width="10" stroke="url(&quot;#SvgjsLinearGradient1001&quot;)" stroke-linecap="round" class="Down"></path><path d="M83 344L82 551" stroke-width="6" stroke="url(&quot;#SvgjsLinearGradient1002&quot;)" stroke-linecap="round" class="Up"></path><path d="M725 376L724 42" stroke-width="10" stroke="url(&quot;#SvgjsLinearGradient1002&quot;)" stroke-linecap="round" class="Up"></path><path d="M97 473L96 315" stroke-width="6" stroke="url(&quot;#SvgjsLinearGradient1002&quot;)" stroke-linecap="round" class="Up"></path><path d="M672 477L671 828" stroke-width="6" stroke="url(&quot;#SvgjsLinearGradient1002&quot;)" stroke-linecap="round" class="Up"></path><path d="M368 406L367 699" stroke-width="8" stroke="url(&quot;#SvgjsLinearGradient1002&quot;)" stroke-linecap="round" class="Up"></path><path d="M19 8L18 -141" stroke-width="6" stroke="url(&quot;#SvgjsLinearGradient1002&quot;)" stroke-linecap="round" class="Up"></path><path d="M131 237L130 -86" stroke-width="6" stroke="url(&quot;#SvgjsLinearGradient1002&quot;)" stroke-linecap="round" class="Up"></path><path d="M1361 419L1360 708" stroke-width="10" stroke="url(&quot;#SvgjsLinearGradient1002&quot;)" stroke-linecap="round" class="Up"></path><path d="M1084 184L1083 -152" stroke-width="8" stroke="url(&quot;#SvgjsLinearGradient1001&quot;)" stroke-linecap="round" class="Down"></path><path d="M1017 152L1016 456" stroke-width="10" stroke="url(&quot;#SvgjsLinearGradient1002&quot;)" stroke-linecap="round" class="Up"></path><path d="M1152 535L1151 734" stroke-width="6" stroke="url(&quot;#SvgjsLinearGradient1001&quot;)" stroke-linecap="round" class="Down"></path><path d="M392 216L391 402" stroke-width="8" stroke="url(&quot;#SvgjsLinearGradient1002&quot;)" stroke-linecap="round" class="Up"></path><path d="M1269 527L1268 316" stroke-width="6" stroke="url(&quot;#SvgjsLinearGradient1001&quot;)" stroke-linecap="round" class="Down"></path><path d="M139 518L138 208" stroke-width="10" stroke="url(&quot;#SvgjsLinearGradient1001&quot;)" stroke-linecap="round" class="Down"></path><path d="M1094 390L1093 119" stroke-width="10" stroke="url(&quot;#SvgjsLinearGradient1002&quot;)" stroke-linecap="round" class="Up"></path></g><defs><mask id="SvgjsMask1000"><rect width="1440" height="560" fill="#ffffff"></rect></mask><linearGradient x1="0%" y1="0%" x2="0%" y2="100%" id="SvgjsLinearGradient1001"><stop stop-color="rgba(28, 83, 142, 0)" offset="0"></stop><stop stop-color="#1c538e" offset="1"></stop></linearGradient><linearGradient x1="0%" y1="100%" x2="0%" y2="0%" id="SvgjsLinearGradient1002"><stop stop-color="rgba(28, 83, 142, 0)" offset="0"></stop><stop stop-color="#1c538e" offset="1"></stop></linearGradient></defs></svg>