<svg xmlns="http://www.w3.org/2000/svg" version="1.1" xmlns:xlink="http://www.w3.org/1999/xlink" xmlns:svgjs="http://svgjs.dev/svgjs" width="1440" height="560" preserveAspectRatio="none" viewBox="0 0 1440 560"><g mask="url(&quot;#SvgjsMask1000&quot;)" fill="none"><rect width="1440" height="560" x="0" y="0" fill="#0e2a47"></rect><path d="M-83.96 385.19L-83.96 385.19" stroke="#132e65" stroke-width="1.5"></path><path d="M-83.96 385.19L64.92 357.07" stroke="#132e65" stroke-width="1.5"></path><path d="M-83.96 385.19L-107.58 553" stroke="#132e65" stroke-width="1.5"></path><path d="M-83.96 385.19L95.04 538.01" stroke="#132e65" stroke-width="1.5"></path><path d="M-83.96 385.19L-72.01 668.57" stroke="#132e65" stroke-width="1.5"></path><path d="M-83.96 385.19L210.15 412.1" stroke="#132e65" stroke-width="1.5"></path><path d="M-83.96 385.19L44.98 698.36" stroke="#132e65" stroke-width="1.5"></path><path d="M-107.58 553L-107.58 553" stroke="#132e65" stroke-width="1.5"></path><path d="M-107.58 553L-72.01 668.57" stroke="#132e65" stroke-width="1.5"></path><path d="M-107.58 553L95.04 538.01" stroke="#132e65" stroke-width="1.5"></path><path d="M-107.58 553L44.98 698.36" stroke="#132e65" stroke-width="1.5"></path><path d="M-107.58 553L64.92 357.07" stroke="#132e65" stroke-width="1.5"></path><path d="M-72.01 668.57L-72.01 668.57" stroke="#132e65" stroke-width="1.5"></path><path d="M-72.01 668.57L44.98 698.36" stroke="#132e65" stroke-width="1.5"></path><path d="M-72.01 668.57L95.04 538.01" stroke="#132e65" stroke-width="1.5"></path><path d="M64.92 357.07L64.92 357.07" stroke="#132e65" stroke-width="1.5"></path><path d="M64.92 357.07L210.15 412.1" stroke="#132e65" stroke-width="1.5"></path><path d="M64.92 357.07L95.04 538.01" stroke="#132e65" stroke-width="1.5"></path><path d="M64.92 357.07L240.11 504.53" stroke="#132e65" stroke-width="1.5"></path><path d="M95.04 538.01L95.04 538.01" stroke="#132e65" stroke-width="1.5"></path><path d="M95.04 538.01L240.11 504.53" stroke="#132e65" stroke-width="1.5"></path><path d="M95.04 538.01L44.98 698.36" stroke="#132e65" stroke-width="1.5"></path><path d="M95.04 538.01L210.15 412.1" stroke="#132e65" stroke-width="1.5"></path><path d="M95.04 538.01L255.18 648.87" stroke="#132e65" stroke-width="1.5"></path><path d="M44.98 698.36L44.98 698.36" stroke="#132e65" stroke-width="1.5"></path><path d="M210.15 412.1L210.15 412.1" stroke="#132e65" stroke-width="1.5"></path><path d="M210.15 412.1L240.11 504.53" stroke="#132e65" stroke-width="1.5"></path><path d="M240.11 504.53L240.11 504.53" stroke="#132e65" stroke-width="1.5"></path><path d="M240.11 504.53L255.18 648.87" stroke="#132e65" stroke-width="1.5"></path><path d="M255.18 648.87L255.18 648.87" stroke="#132e65" stroke-width="1.5"></path><path d="M255.18 648.87L391.67 650.46" stroke="#132e65" stroke-width="1.5"></path><path d="M255.18 648.87L406.44 520.06" stroke="#132e65" stroke-width="1.5"></path><path d="M405.66 395.1L405.66 395.1" stroke="#132e65" stroke-width="1.5"></path><path d="M405.66 395.1L499.07 378.91" stroke="#132e65" stroke-width="1.5"></path><path d="M405.66 395.1L406.44 520.06" stroke="#132e65" stroke-width="1.5"></path><path d="M405.66 395.1L534.19 491.06" stroke="#132e65" stroke-width="1.5"></path><path d="M405.66 395.1L210.15 412.1" stroke="#132e65" stroke-width="1.5"></path><path d="M405.66 395.1L240.11 504.53" stroke="#132e65" stroke-width="1.5"></path><path d="M406.44 520.06L406.44 520.06" stroke="#132e65" stroke-width="1.5"></path><path d="M406.44 520.06L534.19 491.06" stroke="#132e65" stroke-width="1.5"></path><path d="M406.44 520.06L391.67 650.46" stroke="#132e65" stroke-width="1.5"></path><path d="M406.44 520.06L492.15 659.02" stroke="#132e65" stroke-width="1.5"></path><path d="M406.44 520.06L240.11 504.53" stroke="#132e65" stroke-width="1.5"></path><path d="M391.67 650.46L391.67 650.46" stroke="#132e65" stroke-width="1.5"></path><path d="M391.67 650.46L492.15 659.02" stroke="#132e65" stroke-width="1.5"></path><path d="M391.67 650.46L240.11 504.53" stroke="#132e65" stroke-width="1.5"></path><path d="M391.67 650.46L534.19 491.06" stroke="#132e65" stroke-width="1.5"></path><path d="M499.07 378.91L499.07 378.91" stroke="#132e65" stroke-width="1.5"></path><path d="M499.07 378.91L534.19 491.06" stroke="#132e65" stroke-width="1.5"></path><path d="M499.07 378.91L638.13 386.57" stroke="#132e65" stroke-width="1.5"></path><path d="M499.07 378.91L406.44 520.06" stroke="#132e65" stroke-width="1.5"></path><path d="M534.19 491.06L534.19 491.06" stroke="#132e65" stroke-width="1.5"></path><path d="M492.15 659.02L492.15 659.02" stroke="#132e65" stroke-width="1.5"></path><path d="M492.15 659.02L638.44 640.97" stroke="#132e65" stroke-width="1.5"></path><path d="M492.15 659.02L534.19 491.06" stroke="#132e65" stroke-width="1.5"></path><path d="M492.15 659.02L255.18 648.87" stroke="#132e65" stroke-width="1.5"></path><path d="M492.15 659.02L405.66 395.1" stroke="#132e65" stroke-width="1.5"></path><path d="M692.14 245.69L692.14 245.69" stroke="#132e65" stroke-width="1.5"></path><path d="M692.14 245.69L806.37 211.01" stroke="#132e65" stroke-width="1.5"></path><path d="M692.14 245.69L638.13 386.57" stroke="#132e65" stroke-width="1.5"></path><path d="M692.14 245.69L808.93 390.74" stroke="#132e65" stroke-width="1.5"></path><path d="M692.14 245.69L499.07 378.91" stroke="#132e65" stroke-width="1.5"></path><path d="M692.14 245.69L949.86 204.15" stroke="#132e65" stroke-width="1.5"></path><path d="M692.14 245.69L534.19 491.06" stroke="#132e65" stroke-width="1.5"></path><path d="M638.13 386.57L638.13 386.57" stroke="#132e65" stroke-width="1.5"></path><path d="M638.13 386.57L534.19 491.06" stroke="#132e65" stroke-width="1.5"></path><path d="M638.44 640.97L638.44 640.97" stroke="#132e65" stroke-width="1.5"></path><path d="M638.44 640.97L534.19 491.06" stroke="#132e65" stroke-width="1.5"></path><path d="M638.44 640.97L804.04 543.12" stroke="#132e65" stroke-width="1.5"></path><path d="M806.37 211.01L806.37 211.01" stroke="#132e65" stroke-width="1.5"></path><path d="M806.37 211.01L949.86 204.15" stroke="#132e65" stroke-width="1.5"></path><path d="M806.37 211.01L808.93 390.74" stroke="#132e65" stroke-width="1.5"></path><path d="M808.93 390.74L808.93 390.74" stroke="#132e65" stroke-width="1.5"></path><path d="M808.93 390.74L947.9 407.59" stroke="#132e65" stroke-width="1.5"></path><path d="M808.93 390.74L804.04 543.12" stroke="#132e65" stroke-width="1.5"></path><path d="M808.93 390.74L638.13 386.57" stroke="#132e65" stroke-width="1.5"></path><path d="M804.04 543.12L804.04 543.12" stroke="#132e65" stroke-width="1.5"></path><path d="M804.04 543.12L848.9 647.83" stroke="#132e65" stroke-width="1.5"></path><path d="M804.04 543.12L968.2 508.39" stroke="#132e65" stroke-width="1.5"></path><path d="M804.04 543.12L947.9 407.59" stroke="#132e65" stroke-width="1.5"></path><path d="M804.04 543.12L945.66 709.58" stroke="#132e65" stroke-width="1.5"></path><path d="M848.9 647.83L848.9 647.83" stroke="#132e65" stroke-width="1.5"></path><path d="M848.9 647.83L945.66 709.58" stroke="#132e65" stroke-width="1.5"></path><path d="M848.9 647.83L968.2 508.39" stroke="#132e65" stroke-width="1.5"></path><path d="M848.9 647.83L638.44 640.97" stroke="#132e65" stroke-width="1.5"></path><path d="M995.15 -56.44L995.15 -56.44" stroke="#132e65" stroke-width="1.5"></path><path d="M995.15 -56.44L1135.92 -40.6" stroke="#132e65" stroke-width="1.5"></path><path d="M995.15 -56.44L948.14 92.75" stroke="#132e65" stroke-width="1.5"></path><path d="M995.15 -56.44L1124.77 63.6" stroke="#132e65" stroke-width="1.5"></path><path d="M948.14 92.75L948.14 92.75" stroke="#132e65" stroke-width="1.5"></path><path d="M948.14 92.75L949.86 204.15" stroke="#132e65" stroke-width="1.5"></path><path d="M948.14 92.75L1124.77 63.6" stroke="#132e65" stroke-width="1.5"></path><path d="M949.86 204.15L949.86 204.15" stroke="#132e65" stroke-width="1.5"></path><path d="M949.86 204.15L1127.9 197.78" stroke="#132e65" stroke-width="1.5"></path><path d="M949.86 204.15L947.9 407.59" stroke="#132e65" stroke-width="1.5"></path><path d="M949.86 204.15L1124.77 63.6" stroke="#132e65" stroke-width="1.5"></path><path d="M947.9 407.59L947.9 407.59" stroke="#132e65" stroke-width="1.5"></path><path d="M947.9 407.59L968.2 508.39" stroke="#132e65" stroke-width="1.5"></path><path d="M968.2 508.39L968.2 508.39" stroke="#132e65" stroke-width="1.5"></path><path d="M968.2 508.39L1132 512.89" stroke="#132e65" stroke-width="1.5"></path><path d="M968.2 508.39L808.93 390.74" stroke="#132e65" stroke-width="1.5"></path><path d="M968.2 508.39L945.66 709.58" stroke="#132e65" stroke-width="1.5"></path><path d="M945.66 709.58L945.66 709.58" stroke="#132e65" stroke-width="1.5"></path><path d="M945.66 709.58L1106.22 671.89" stroke="#132e65" stroke-width="1.5"></path><path d="M1135.92 -40.6L1135.92 -40.6" stroke="#132e65" stroke-width="1.5"></path><path d="M1135.92 -40.6L1124.77 63.6" stroke="#132e65" stroke-width="1.5"></path><path d="M1135.92 -40.6L1279.9 -90.12" stroke="#132e65" stroke-width="1.5"></path><path d="M1135.92 -40.6L1291.83 99.31" stroke="#132e65" stroke-width="1.5"></path><path d="M1124.77 63.6L1124.77 63.6" stroke="#132e65" stroke-width="1.5"></path><path d="M1124.77 63.6L1127.9 197.78" stroke="#132e65" stroke-width="1.5"></path><path d="M1124.77 63.6L1291.83 99.31" stroke="#132e65" stroke-width="1.5"></path><path d="M1124.77 63.6L1255.06 208.51" stroke="#132e65" stroke-width="1.5"></path><path d="M1127.9 197.78L1127.9 197.78" stroke="#132e65" stroke-width="1.5"></path><path d="M1127.9 197.78L1255.06 208.51" stroke="#132e65" stroke-width="1.5"></path><path d="M1127.41 382.16L1127.41 382.16" stroke="#132e65" stroke-width="1.5"></path><path d="M1127.41 382.16L1132 512.89" stroke="#132e65" stroke-width="1.5"></path><path d="M1127.41 382.16L1277.69 348.68" stroke="#132e65" stroke-width="1.5"></path><path d="M1127.41 382.16L947.9 407.59" stroke="#132e65" stroke-width="1.5"></path><path d="M1127.41 382.16L1127.9 197.78" stroke="#132e65" stroke-width="1.5"></path><path d="M1132 512.89L1132 512.89" stroke="#132e65" stroke-width="1.5"></path><path d="M1132 512.89L1258.38 523.69" stroke="#132e65" stroke-width="1.5"></path><path d="M1132 512.89L1106.22 671.89" stroke="#132e65" stroke-width="1.5"></path><path d="M1132 512.89L947.9 407.59" stroke="#132e65" stroke-width="1.5"></path><path d="M1106.22 671.89L1106.22 671.89" stroke="#132e65" stroke-width="1.5"></path><path d="M1106.22 671.89L1285.74 696.68" stroke="#132e65" stroke-width="1.5"></path><path d="M1106.22 671.89L1258.38 523.69" stroke="#132e65" stroke-width="1.5"></path><path d="M1279.9 -90.12L1279.9 -90.12" stroke="#132e65" stroke-width="1.5"></path><path d="M1279.9 -90.12L1430.72 -54.78" stroke="#132e65" stroke-width="1.5"></path><path d="M1279.9 -90.12L1291.83 99.31" stroke="#132e65" stroke-width="1.5"></path><path d="M1279.9 -90.12L1420.68 50.87" stroke="#132e65" stroke-width="1.5"></path><path d="M1279.9 -90.12L1124.77 63.6" stroke="#132e65" stroke-width="1.5"></path><path d="M1291.83 99.31L1291.83 99.31" stroke="#132e65" stroke-width="1.5"></path><path d="M1291.83 99.31L1255.06 208.51" stroke="#132e65" stroke-width="1.5"></path><path d="M1291.83 99.31L1420.68 50.87" stroke="#132e65" stroke-width="1.5"></path><path d="M1291.83 99.31L1410.22 205.53" stroke="#132e65" stroke-width="1.5"></path><path d="M1291.83 99.31L1127.9 197.78" stroke="#132e65" stroke-width="1.5"></path><path d="M1255.06 208.51L1255.06 208.51" stroke="#132e65" stroke-width="1.5"></path><path d="M1255.06 208.51L1277.69 348.68" stroke="#132e65" stroke-width="1.5"></path><path d="M1255.06 208.51L1410.22 205.53" stroke="#132e65" stroke-width="1.5"></path><path d="M1277.69 348.68L1277.69 348.68" stroke="#132e65" stroke-width="1.5"></path><path d="M1277.69 348.68L1412.37 407.99" stroke="#132e65" stroke-width="1.5"></path><path d="M1258.38 523.69L1258.38 523.69" stroke="#132e65" stroke-width="1.5"></path><path d="M1258.38 523.69L1285.74 696.68" stroke="#132e65" stroke-width="1.5"></path><path d="M1258.38 523.69L1277.69 348.68" stroke="#132e65" stroke-width="1.5"></path><path d="M1285.74 696.68L1285.74 696.68" stroke="#132e65" stroke-width="1.5"></path><path d="M1285.74 696.68L1432.37 670.68" stroke="#132e65" stroke-width="1.5"></path><path d="M1285.74 696.68L1132 512.89" stroke="#132e65" stroke-width="1.5"></path><path d="M1285.74 696.68L1462.3 490.49" stroke="#132e65" stroke-width="1.5"></path><path d="M1430.72 -54.78L1430.72 -54.78" stroke="#132e65" stroke-width="1.5"></path><path d="M1430.72 -54.78L1420.68 50.87" stroke="#132e65" stroke-width="1.5"></path><path d="M1430.72 -54.78L1579.92 -56.66" stroke="#132e65" stroke-width="1.5"></path><path d="M1420.68 50.87L1420.68 50.87" stroke="#132e65" stroke-width="1.5"></path><path d="M1410.22 205.53L1410.22 205.53" stroke="#132e65" stroke-width="1.5"></path><path d="M1410.22 205.53L1420.68 50.87" stroke="#132e65" stroke-width="1.5"></path><path d="M1412.37 407.99L1412.37 407.99" stroke="#132e65" stroke-width="1.5"></path><path d="M1412.37 407.99L1462.3 490.49" stroke="#132e65" stroke-width="1.5"></path><path d="M1412.37 407.99L1604.23 395.43" stroke="#132e65" stroke-width="1.5"></path><path d="M1412.37 407.99L1258.38 523.69" stroke="#132e65" stroke-width="1.5"></path><path d="M1412.37 407.99L1588.2 504.9" stroke="#132e65" stroke-width="1.5"></path><path d="M1462.3 490.49L1462.3 490.49" stroke="#132e65" stroke-width="1.5"></path><path d="M1462.3 490.49L1588.2 504.9" stroke="#132e65" stroke-width="1.5"></path><path d="M1462.3 490.49L1604.23 395.43" stroke="#132e65" stroke-width="1.5"></path><path d="M1462.3 490.49L1432.37 670.68" stroke="#132e65" stroke-width="1.5"></path><path d="M1462.3 490.49L1258.38 523.69" stroke="#132e65" stroke-width="1.5"></path><path d="M1432.37 670.68L1432.37 670.68" stroke="#132e65" stroke-width="1.5"></path><path d="M1432.37 670.68L1605.64 651.26" stroke="#132e65" stroke-width="1.5"></path><path d="M1579.92 -56.66L1579.92 -56.66" stroke="#132e65" stroke-width="1.5"></path><path d="M1579.92 -56.66L1573.17 49.32" stroke="#132e65" stroke-width="1.5"></path><path d="M1579.92 -56.66L1420.68 50.87" stroke="#132e65" stroke-width="1.5"></path><path d="M1579.92 -56.66L1589.07 237.39" stroke="#132e65" stroke-width="1.5"></path><path d="M1579.92 -56.66L1279.9 -90.12" stroke="#132e65" stroke-width="1.5"></path><path d="M1573.17 49.32L1573.17 49.32" stroke="#132e65" stroke-width="1.5"></path><path d="M1573.17 49.32L1420.68 50.87" stroke="#132e65" stroke-width="1.5"></path><path d="M1573.17 49.32L1430.72 -54.78" stroke="#132e65" stroke-width="1.5"></path><path d="M1573.17 49.32L1589.07 237.39" stroke="#132e65" stroke-width="1.5"></path><path d="M1573.17 49.32L1410.22 205.53" stroke="#132e65" stroke-width="1.5"></path><path d="M1589.07 237.39L1589.07 237.39" stroke="#132e65" stroke-width="1.5"></path><path d="M1589.07 237.39L1604.23 395.43" stroke="#132e65" stroke-width="1.5"></path><path d="M1589.07 237.39L1410.22 205.53" stroke="#132e65" stroke-width="1.5"></path><path d="M1589.07 237.39L1412.37 407.99" stroke="#132e65" stroke-width="1.5"></path><path d="M1604.23 395.43L1604.23 395.43" stroke="#132e65" stroke-width="1.5"></path><path d="M1604.23 395.43L1588.2 504.9" stroke="#132e65" stroke-width="1.5"></path><path d="M1588.2 504.9L1588.2 504.9" stroke="#132e65" stroke-width="1.5"></path><path d="M1588.2 504.9L1605.64 651.26" stroke="#132e65" stroke-width="1.5"></path><path d="M1605.64 651.26L1605.64 651.26" stroke="#132e65" stroke-width="1.5"></path><path d="M1605.64 651.26L1462.3 490.49" stroke="#132e65" stroke-width="1.5"></path><path d="M1605.64 651.26L1604.23 395.43" stroke="#132e65" stroke-width="1.5"></path><path d="M1605.64 651.26L1412.37 407.99" stroke="#132e65" stroke-width="1.5"></path><circle r="5" cx="-83.96" cy="385.19" fill="#132e65"></circle><circle r="5" cx="-107.58" cy="553" fill="#132e65"></circle><circle r="5" cx="-72.01" cy="668.57" fill="#132e65"></circle><circle r="5" cx="64.92" cy="357.07" fill="#132e65"></circle><circle r="5" cx="95.04" cy="538.01" fill="#132e65"></circle><circle r="5" cx="44.98" cy="698.36" fill="#132e65"></circle><circle r="5" cx="210.15" cy="412.1" fill="#132e65"></circle><circle r="5" cx="240.11" cy="504.53" fill="#132e65"></circle><circle r="5" cx="255.18" cy="648.87" fill="#132e65"></circle><circle r="5" cx="405.66" cy="395.1" fill="#132e65"></circle><circle r="5" cx="406.44" cy="520.06" fill="#132e65"></circle><circle r="5" cx="391.67" cy="650.46" fill="#132e65"></circle><circle r="5" cx="499.07" cy="378.91" fill="#132e65"></circle><circle r="5" cx="534.19" cy="491.06" fill="#132e65"></circle><circle r="5" cx="492.15" cy="659.02" fill="#132e65"></circle><circle r="5" cx="692.14" cy="245.69" fill="#132e65"></circle><circle r="5" cx="638.13" cy="386.57" fill="#132e65"></circle><circle r="5" cx="638.44" cy="640.97" fill="#132e65"></circle><circle r="5" cx="806.37" cy="211.01" fill="#132e65"></circle><circle r="5" cx="808.93" cy="390.74" fill="#132e65"></circle><circle r="5" cx="804.04" cy="543.12" fill="#132e65"></circle><circle r="5" cx="848.9" cy="647.83" fill="#132e65"></circle><circle r="5" cx="995.15" cy="-56.44" fill="#132e65"></circle><circle r="5" cx="948.14" cy="92.75" fill="#132e65"></circle><circle r="5" cx="949.86" cy="204.15" fill="#132e65"></circle><circle r="5" cx="947.9" cy="407.59" fill="#132e65"></circle><circle r="5" cx="968.2" cy="508.39" fill="#132e65"></circle><circle r="5" cx="945.66" cy="709.58" fill="#132e65"></circle><circle r="5" cx="1135.92" cy="-40.6" fill="#132e65"></circle><circle r="5" cx="1124.77" cy="63.6" fill="#132e65"></circle><circle r="5" cx="1127.9" cy="197.78" fill="#132e65"></circle><circle r="5" cx="1127.41" cy="382.16" fill="#132e65"></circle><circle r="5" cx="1132" cy="512.89" fill="#132e65"></circle><circle r="5" cx="1106.22" cy="671.89" fill="#132e65"></circle><circle r="5" cx="1279.9" cy="-90.12" fill="#132e65"></circle><circle r="5" cx="1291.83" cy="99.31" fill="#132e65"></circle><circle r="5" cx="1255.06" cy="208.51" fill="#132e65"></circle><circle r="5" cx="1277.69" cy="348.68" fill="#132e65"></circle><circle r="5" cx="1258.38" cy="523.69" fill="#132e65"></circle><circle r="5" cx="1285.74" cy="696.68" fill="#132e65"></circle><circle r="5" cx="1430.72" cy="-54.78" fill="#132e65"></circle><circle r="5" cx="1420.68" cy="50.87" fill="#132e65"></circle><circle r="5" cx="1410.22" cy="205.53" fill="#132e65"></circle><circle r="5" cx="1412.37" cy="407.99" fill="#132e65"></circle><circle r="5" cx="1462.3" cy="490.49" fill="#132e65"></circle><circle r="5" cx="1432.37" cy="670.68" fill="#132e65"></circle><circle r="5" cx="1579.92" cy="-56.66" fill="#132e65"></circle><circle r="5" cx="1573.17" cy="49.32" fill="#132e65"></circle><circle r="5" cx="1589.07" cy="237.39" fill="#132e65"></circle><circle r="5" cx="1604.23" cy="395.43" fill="#132e65"></circle><circle r="5" cx="1588.2" cy="504.9" fill="#132e65"></circle><circle r="5" cx="1605.64" cy="651.26" fill="#132e65"></circle><path d="M210.61 641.84L210.61 641.84" stroke="hsl(228.5, 77.2%, 51.5%)" stroke-width="1.5"></path><path d="M210.61 641.84L207.03 511.08" stroke="hsl(228.5, 77.2%, 51.5%)" stroke-width="1.5"></path><path d="M210.61 641.84L365.86 665.18" stroke="hsl(228.5, 77.2%, 51.5%)" stroke-width="1.5"></path><path d="M210.61 641.84L39 666.96" stroke="hsl(228.5, 77.2%, 51.5%)" stroke-width="1.5"></path><path d="M210.61 641.84L43.55 489.4" stroke="hsl(228.5, 77.2%, 51.5%)" stroke-width="1.5"></path><path d="M210.61 641.84L410.93 523.06" stroke="hsl(228.5, 77.2%, 51.5%)" stroke-width="1.5"></path><path d="M210.61 641.84L-45.56 649.54" stroke="hsl(228.5, 77.2%, 51.5%)" stroke-width="1.5"></path><path d="M365.86 665.18L365.86 665.18" stroke="hsl(228.5, 77.2%, 51.5%)" stroke-width="1.5"></path><path d="M365.86 665.18L410.93 523.06" stroke="hsl(228.5, 77.2%, 51.5%)" stroke-width="1.5"></path><path d="M365.86 665.18L515.21 674.28" stroke="hsl(228.5, 77.2%, 51.5%)" stroke-width="1.5"></path><path d="M365.86 665.18L489.46 528.93" stroke="hsl(228.5, 77.2%, 51.5%)" stroke-width="1.5"></path><path d="M365.86 665.18L207.03 511.08" stroke="hsl(228.5, 77.2%, 51.5%)" stroke-width="1.5"></path><path d="M489.46 528.93L489.46 528.93" stroke="hsl(228.5, 77.2%, 51.5%)" stroke-width="1.5"></path><path d="M489.46 528.93L410.93 523.06" stroke="hsl(228.5, 77.2%, 51.5%)" stroke-width="1.5"></path><path d="M489.46 528.93L515.21 674.28" stroke="hsl(228.5, 77.2%, 51.5%)" stroke-width="1.5"></path><path d="M489.46 528.93L653.24 550.8" stroke="hsl(228.5, 77.2%, 51.5%)" stroke-width="1.5"></path><path d="M515.21 674.28L515.21 674.28" stroke="hsl(228.5, 77.2%, 51.5%)" stroke-width="1.5"></path><path d="M515.21 674.28L660.98 703.67" stroke="hsl(228.5, 77.2%, 51.5%)" stroke-width="1.5"></path><path d="M515.21 674.28L410.93 523.06" stroke="hsl(228.5, 77.2%, 51.5%)" stroke-width="1.5"></path><path d="M795.24 502.58L795.24 502.58" stroke="hsl(228.5, 77.2%, 51.5%)" stroke-width="1.5"></path><path d="M795.24 502.58L812.19 358.78" stroke="hsl(228.5, 77.2%, 51.5%)" stroke-width="1.5"></path><path d="M795.24 502.58L653.24 550.8" stroke="hsl(228.5, 77.2%, 51.5%)" stroke-width="1.5"></path><path d="M795.24 502.58L672.86 408.91" stroke="hsl(228.5, 77.2%, 51.5%)" stroke-width="1.5"></path><path d="M795.24 502.58L800.27 675.03" stroke="hsl(228.5, 77.2%, 51.5%)" stroke-width="1.5"></path><path d="M795.24 502.58L1001.81 546.72" stroke="hsl(228.5, 77.2%, 51.5%)" stroke-width="1.5"></path><path d="M1286.02 535.09L1286.02 535.09" stroke="hsl(228.5, 77.2%, 51.5%)" stroke-width="1.5"></path><path d="M1286.02 535.09L1277.61 408.6" stroke="hsl(228.5, 77.2%, 51.5%)" stroke-width="1.5"></path><path d="M1286.02 535.09L1244.24 681.13" stroke="hsl(228.5, 77.2%, 51.5%)" stroke-width="1.5"></path><path d="M1458.74 -74.85L1458.74 -74.85" stroke="hsl(228.5, 77.2%, 51.5%)" stroke-width="1.5"></path><path d="M1458.74 -74.85L1310.52 -76.48" stroke="hsl(228.5, 77.2%, 51.5%)" stroke-width="1.5"></path><path d="M1458.74 -74.85L1452.07 73.59" stroke="hsl(228.5, 77.2%, 51.5%)" stroke-width="1.5"></path><path d="M1458.74 -74.85L1612.32 -47.26" stroke="hsl(228.5, 77.2%, 51.5%)" stroke-width="1.5"></path><path d="M1458.74 -74.85L1597.98 39.1" stroke="hsl(228.5, 77.2%, 51.5%)" stroke-width="1.5"></path><path d="M1550.55 530.19L1550.55 530.19" stroke="hsl(228.5, 77.2%, 51.5%)" stroke-width="1.5"></path><path d="M1550.55 530.19L1541.87 397.11" stroke="hsl(228.5, 77.2%, 51.5%)" stroke-width="1.5"></path><path d="M-40.91 507.58L-40.91 507.58" stroke="hsl(228.5, 77.2%, 51.5%)" stroke-width="1.5"></path><path d="M-40.91 507.58L43.55 489.4" stroke="hsl(228.5, 77.2%, 51.5%)" stroke-width="1.5"></path><path d="M-40.91 507.58L-45.56 649.54" stroke="hsl(228.5, 77.2%, 51.5%)" stroke-width="1.5"></path><path d="M-45.56 649.54L-45.56 649.54" stroke="hsl(228.5, 77.2%, 51.5%)" stroke-width="1.5"></path><path d="M-45.56 649.54L39 666.96" stroke="hsl(228.5, 77.2%, 51.5%)" stroke-width="1.5"></path><path d="M-45.56 649.54L43.55 489.4" stroke="hsl(228.5, 77.2%, 51.5%)" stroke-width="1.5"></path><path d="M43.55 489.4L43.55 489.4" stroke="hsl(228.5, 77.2%, 51.5%)" stroke-width="1.5"></path><path d="M43.55 489.4L207.03 511.08" stroke="hsl(228.5, 77.2%, 51.5%)" stroke-width="1.5"></path><path d="M43.55 489.4L39 666.96" stroke="hsl(228.5, 77.2%, 51.5%)" stroke-width="1.5"></path><path d="M39 666.96L39 666.96" stroke="hsl(228.5, 77.2%, 51.5%)" stroke-width="1.5"></path><path d="M39 666.96L-40.91 507.58" stroke="hsl(228.5, 77.2%, 51.5%)" stroke-width="1.5"></path><path d="M207.03 511.08L207.03 511.08" stroke="hsl(228.5, 77.2%, 51.5%)" stroke-width="1.5"></path><path d="M207.03 511.08L410.93 523.06" stroke="hsl(228.5, 77.2%, 51.5%)" stroke-width="1.5"></path><path d="M410.93 523.06L410.93 523.06" stroke="hsl(228.5, 77.2%, 51.5%)" stroke-width="1.5"></path><path d="M672.86 408.91L672.86 408.91" stroke="hsl(228.5, 77.2%, 51.5%)" stroke-width="1.5"></path><path d="M672.86 408.91L653.24 550.8" stroke="hsl(228.5, 77.2%, 51.5%)" stroke-width="1.5"></path><path d="M672.86 408.91L812.19 358.78" stroke="hsl(228.5, 77.2%, 51.5%)" stroke-width="1.5"></path><path d="M672.86 408.91L489.46 528.93" stroke="hsl(228.5, 77.2%, 51.5%)" stroke-width="1.5"></path><path d="M672.86 408.91L410.93 523.06" stroke="hsl(228.5, 77.2%, 51.5%)" stroke-width="1.5"></path><path d="M653.24 550.8L653.24 550.8" stroke="hsl(228.5, 77.2%, 51.5%)" stroke-width="1.5"></path><path d="M653.24 550.8L660.98 703.67" stroke="hsl(228.5, 77.2%, 51.5%)" stroke-width="1.5"></path><path d="M660.98 703.67L660.98 703.67" stroke="hsl(228.5, 77.2%, 51.5%)" stroke-width="1.5"></path><path d="M660.98 703.67L800.27 675.03" stroke="hsl(228.5, 77.2%, 51.5%)" stroke-width="1.5"></path><path d="M660.98 703.67L795.24 502.58" stroke="hsl(228.5, 77.2%, 51.5%)" stroke-width="1.5"></path><path d="M812.19 358.78L812.19 358.78" stroke="hsl(228.5, 77.2%, 51.5%)" stroke-width="1.5"></path><path d="M812.19 358.78L966.35 361.72" stroke="hsl(228.5, 77.2%, 51.5%)" stroke-width="1.5"></path><path d="M812.19 358.78L653.24 550.8" stroke="hsl(228.5, 77.2%, 51.5%)" stroke-width="1.5"></path><path d="M812.19 358.78L1001.81 546.72" stroke="hsl(228.5, 77.2%, 51.5%)" stroke-width="1.5"></path><path d="M800.27 675.03L800.27 675.03" stroke="hsl(228.5, 77.2%, 51.5%)" stroke-width="1.5"></path><path d="M800.27 675.03L970.64 685.6" stroke="hsl(228.5, 77.2%, 51.5%)" stroke-width="1.5"></path><path d="M966.35 361.72L966.35 361.72" stroke="hsl(228.5, 77.2%, 51.5%)" stroke-width="1.5"></path><path d="M966.35 361.72L1144.83 361" stroke="hsl(228.5, 77.2%, 51.5%)" stroke-width="1.5"></path><path d="M966.35 361.72L1001.81 546.72" stroke="hsl(228.5, 77.2%, 51.5%)" stroke-width="1.5"></path><path d="M966.35 361.72L1125.83 500.24" stroke="hsl(228.5, 77.2%, 51.5%)" stroke-width="1.5"></path><path d="M1001.81 546.72L1001.81 546.72" stroke="hsl(228.5, 77.2%, 51.5%)" stroke-width="1.5"></path><path d="M1001.81 546.72L1125.83 500.24" stroke="hsl(228.5, 77.2%, 51.5%)" stroke-width="1.5"></path><path d="M1001.81 546.72L970.64 685.6" stroke="hsl(228.5, 77.2%, 51.5%)" stroke-width="1.5"></path><path d="M1001.81 546.72L1122.31 643.4" stroke="hsl(228.5, 77.2%, 51.5%)" stroke-width="1.5"></path><path d="M970.64 685.6L970.64 685.6" stroke="hsl(228.5, 77.2%, 51.5%)" stroke-width="1.5"></path><path d="M970.64 685.6L1122.31 643.4" stroke="hsl(228.5, 77.2%, 51.5%)" stroke-width="1.5"></path><path d="M970.64 685.6L1125.83 500.24" stroke="hsl(228.5, 77.2%, 51.5%)" stroke-width="1.5"></path><path d="M970.64 685.6L795.24 502.58" stroke="hsl(228.5, 77.2%, 51.5%)" stroke-width="1.5"></path><path d="M1140.58 219.44L1140.58 219.44" stroke="hsl(228.5, 77.2%, 51.5%)" stroke-width="1.5"></path><path d="M1140.58 219.44L1253.28 224.17" stroke="hsl(228.5, 77.2%, 51.5%)" stroke-width="1.5"></path><path d="M1144.83 361L1144.83 361" stroke="hsl(228.5, 77.2%, 51.5%)" stroke-width="1.5"></path><path d="M1144.83 361L1125.83 500.24" stroke="hsl(228.5, 77.2%, 51.5%)" stroke-width="1.5"></path><path d="M1144.83 361L1277.61 408.6" stroke="hsl(228.5, 77.2%, 51.5%)" stroke-width="1.5"></path><path d="M1144.83 361L1140.58 219.44" stroke="hsl(228.5, 77.2%, 51.5%)" stroke-width="1.5"></path><path d="M1144.83 361L1253.28 224.17" stroke="hsl(228.5, 77.2%, 51.5%)" stroke-width="1.5"></path><path d="M1144.83 361L1286.02 535.09" stroke="hsl(228.5, 77.2%, 51.5%)" stroke-width="1.5"></path><path d="M1125.83 500.24L1125.83 500.24" stroke="hsl(228.5, 77.2%, 51.5%)" stroke-width="1.5"></path><path d="M1125.83 500.24L1122.31 643.4" stroke="hsl(228.5, 77.2%, 51.5%)" stroke-width="1.5"></path><path d="M1125.83 500.24L1286.02 535.09" stroke="hsl(228.5, 77.2%, 51.5%)" stroke-width="1.5"></path><path d="M1125.83 500.24L1277.61 408.6" stroke="hsl(228.5, 77.2%, 51.5%)" stroke-width="1.5"></path><path d="M1122.31 643.4L1122.31 643.4" stroke="hsl(228.5, 77.2%, 51.5%)" stroke-width="1.5"></path><path d="M1122.31 643.4L1244.24 681.13" stroke="hsl(228.5, 77.2%, 51.5%)" stroke-width="1.5"></path><path d="M1122.31 643.4L1286.02 535.09" stroke="hsl(228.5, 77.2%, 51.5%)" stroke-width="1.5"></path><path d="M1122.31 643.4L1396.32 660.02" stroke="hsl(228.5, 77.2%, 51.5%)" stroke-width="1.5"></path><path d="M1310.52 -76.48L1310.52 -76.48" stroke="hsl(228.5, 77.2%, 51.5%)" stroke-width="1.5"></path><path d="M1310.52 -76.48L1452.07 73.59" stroke="hsl(228.5, 77.2%, 51.5%)" stroke-width="1.5"></path><path d="M1310.52 -76.48L1612.32 -47.26" stroke="hsl(228.5, 77.2%, 51.5%)" stroke-width="1.5"></path><path d="M1310.52 -76.48L1253.28 224.17" stroke="hsl(228.5, 77.2%, 51.5%)" stroke-width="1.5"></path><path d="M1253.28 224.17L1253.28 224.17" stroke="hsl(228.5, 77.2%, 51.5%)" stroke-width="1.5"></path><path d="M1253.28 224.17L1277.61 408.6" stroke="hsl(228.5, 77.2%, 51.5%)" stroke-width="1.5"></path><path d="M1253.28 224.17L1439.05 203.34" stroke="hsl(228.5, 77.2%, 51.5%)" stroke-width="1.5"></path><path d="M1277.61 408.6L1277.61 408.6" stroke="hsl(228.5, 77.2%, 51.5%)" stroke-width="1.5"></path><path d="M1244.24 681.13L1244.24 681.13" stroke="hsl(228.5, 77.2%, 51.5%)" stroke-width="1.5"></path><path d="M1244.24 681.13L1396.32 660.02" stroke="hsl(228.5, 77.2%, 51.5%)" stroke-width="1.5"></path><path d="M1244.24 681.13L1125.83 500.24" stroke="hsl(228.5, 77.2%, 51.5%)" stroke-width="1.5"></path><path d="M1452.07 73.59L1452.07 73.59" stroke="hsl(228.5, 77.2%, 51.5%)" stroke-width="1.5"></path><path d="M1452.07 73.59L1439.05 203.34" stroke="hsl(228.5, 77.2%, 51.5%)" stroke-width="1.5"></path><path d="M1439.05 203.34L1439.05 203.34" stroke="hsl(228.5, 77.2%, 51.5%)" stroke-width="1.5"></path><path d="M1439.05 203.34L1566.19 190.18" stroke="hsl(228.5, 77.2%, 51.5%)" stroke-width="1.5"></path><path d="M1396.32 660.02L1396.32 660.02" stroke="hsl(228.5, 77.2%, 51.5%)" stroke-width="1.5"></path><path d="M1396.32 660.02L1286.02 535.09" stroke="hsl(228.5, 77.2%, 51.5%)" stroke-width="1.5"></path><path d="M1612.32 -47.26L1612.32 -47.26" stroke="hsl(228.5, 77.2%, 51.5%)" stroke-width="1.5"></path><path d="M1612.32 -47.26L1597.98 39.1" stroke="hsl(228.5, 77.2%, 51.5%)" stroke-width="1.5"></path><path d="M1597.98 39.1L1597.98 39.1" stroke="hsl(228.5, 77.2%, 51.5%)" stroke-width="1.5"></path><path d="M1597.98 39.1L1452.07 73.59" stroke="hsl(228.5, 77.2%, 51.5%)" stroke-width="1.5"></path><path d="M1597.98 39.1L1566.19 190.18" stroke="hsl(228.5, 77.2%, 51.5%)" stroke-width="1.5"></path><path d="M1566.19 190.18L1566.19 190.18" stroke="hsl(228.5, 77.2%, 51.5%)" stroke-width="1.5"></path><path d="M1541.87 397.11L1541.87 397.11" stroke="hsl(228.5, 77.2%, 51.5%)" stroke-width="1.5"></path><path d="M1541.87 397.11L1566.19 190.18" stroke="hsl(228.5, 77.2%, 51.5%)" stroke-width="1.5"></path><path d="M1541.87 397.11L1439.05 203.34" stroke="hsl(228.5, 77.2%, 51.5%)" stroke-width="1.5"></path><path d="M1541.87 397.11L1277.61 408.6" stroke="hsl(228.5, 77.2%, 51.5%)" stroke-width="1.5"></path><path d="M1541.87 397.11L1598.68 677.9" stroke="hsl(228.5, 77.2%, 51.5%)" stroke-width="1.5"></path><path d="M1541.87 397.11L1286.02 535.09" stroke="hsl(228.5, 77.2%, 51.5%)" stroke-width="1.5"></path><path d="M1598.68 677.9L1598.68 677.9" stroke="hsl(228.5, 77.2%, 51.5%)" stroke-width="1.5"></path><path d="M1598.68 677.9L1550.55 530.19" stroke="hsl(228.5, 77.2%, 51.5%)" stroke-width="1.5"></path><path d="M1598.68 677.9L1396.32 660.02" stroke="hsl(228.5, 77.2%, 51.5%)" stroke-width="1.5"></path><path d="M1598.68 677.9L1286.02 535.09" stroke="hsl(228.5, 77.2%, 51.5%)" stroke-width="1.5"></path><path d="M1598.68 677.9L1244.24 681.13" stroke="hsl(228.5, 77.2%, 51.5%)" stroke-width="1.5"></path><circle r="25" cx="210.61" cy="641.84" fill="url(&quot;#SvgjsRadialGradient1001&quot;)"></circle><circle r="25" cx="365.86" cy="665.18" fill="url(&quot;#SvgjsRadialGradient1001&quot;)"></circle><circle r="25" cx="489.46" cy="528.93" fill="url(&quot;#SvgjsRadialGradient1001&quot;)"></circle><circle r="25" cx="515.21" cy="674.28" fill="url(&quot;#SvgjsRadialGradient1001&quot;)"></circle><circle r="25" cx="795.24" cy="502.58" fill="url(&quot;#SvgjsRadialGradient1001&quot;)"></circle><circle r="25" cx="1286.02" cy="535.09" fill="url(&quot;#SvgjsRadialGradient1001&quot;)"></circle><circle r="25" cx="1458.74" cy="-74.85" fill="url(&quot;#SvgjsRadialGradient1001&quot;)"></circle><circle r="25" cx="1550.55" cy="530.19" fill="url(&quot;#SvgjsRadialGradient1001&quot;)"></circle><circle r="5" cx="-40.91" cy="507.58" fill="#8b9ad9"></circle><circle r="5" cx="-45.56" cy="649.54" fill="#8b9ad9"></circle><circle r="5" cx="43.55" cy="489.4" fill="#8b9ad9"></circle><circle r="5" cx="39" cy="666.96" fill="#8b9ad9"></circle><circle r="5" cx="207.03" cy="511.08" fill="#8b9ad9"></circle><circle r="5" cx="410.93" cy="523.06" fill="#8b9ad9"></circle><circle r="5" cx="672.86" cy="408.91" fill="#8b9ad9"></circle><circle r="5" cx="653.24" cy="550.8" fill="#8b9ad9"></circle><circle r="5" cx="660.98" cy="703.67" fill="#8b9ad9"></circle><circle r="5" cx="812.19" cy="358.78" fill="#8b9ad9"></circle><circle r="5" cx="800.27" cy="675.03" fill="#8b9ad9"></circle><circle r="5" cx="966.35" cy="361.72" fill="#8b9ad9"></circle><circle r="5" cx="1001.81" cy="546.72" fill="#8b9ad9"></circle><circle r="5" cx="970.64" cy="685.6" fill="#8b9ad9"></circle><circle r="5" cx="1140.58" cy="219.44" fill="#8b9ad9"></circle><circle r="5" cx="1144.83" cy="361" fill="#8b9ad9"></circle><circle r="5" cx="1125.83" cy="500.24" fill="#8b9ad9"></circle><circle r="5" cx="1122.31" cy="643.4" fill="#8b9ad9"></circle><circle r="5" cx="1310.52" cy="-76.48" fill="#8b9ad9"></circle><circle r="5" cx="1253.28" cy="224.17" fill="#8b9ad9"></circle><circle r="5" cx="1277.61" cy="408.6" fill="#8b9ad9"></circle><circle r="5" cx="1244.24" cy="681.13" fill="#8b9ad9"></circle><circle r="5" cx="1452.07" cy="73.59" fill="#8b9ad9"></circle><circle r="5" cx="1439.05" cy="203.34" fill="#8b9ad9"></circle><circle r="5" cx="1396.32" cy="660.02" fill="#8b9ad9"></circle><circle r="5" cx="1612.32" cy="-47.26" fill="#8b9ad9"></circle><circle r="5" cx="1597.98" cy="39.1" fill="#8b9ad9"></circle><circle r="5" cx="1566.19" cy="190.18" fill="#8b9ad9"></circle><circle r="5" cx="1541.87" cy="397.11" fill="#8b9ad9"></circle><circle r="5" cx="1598.68" cy="677.9" fill="#8b9ad9"></circle></g><defs><mask id="SvgjsMask1000"><rect width="1440" height="560" fill="#ffffff"></rect></mask><radialGradient id="SvgjsRadialGradient1001"><stop stop-color="#ffffff" offset="0.1"></stop><stop stop-color="#1735b3" offset="0.2"></stop><stop stop-color="rgba(23, 53, 179, 0)" offset="1"></stop></radialGradient></defs></svg>